<svg width="136" height="32" viewBox="0 0 136 32" fill="none" xmlns="http://www.w3.org/2000/svg">
    <path
        d="M0 16C0 7.16344 7.16344 0 16 0C24.8366 0 32 7.16344 32 16C32 24.8366 24.8366 32 16 32C7.16344 32 0 24.8366 0 16Z"
        fill="#171717" />
    <path
        d="M10.6226 16.8942C9.94995 16.2309 9.94995 15.571 10.6226 14.9146L15.1825 10.3826C15.5188 10.0557 15.8577 9.89216 16.1992 9.89216C16.541 9.89216 16.8713 10.0557 17.19 10.3826L21.7762 14.9146C22.1125 15.2333 22.2763 15.5613 22.2675 15.8984C22.2588 16.2353 22.095 16.5672 21.7762 16.8942L17.2163 21.4261C16.88 21.7627 16.541 21.931 16.1992 21.931C15.8577 21.931 15.5188 21.7627 15.1825 21.4261L10.6226 16.8942ZM14.1439 25.0791C14.7754 25.693 15.4464 26 16.1568 26C16.8673 26 17.5295 25.693 18.1435 25.0791L25.3531 17.922C25.9671 17.3081 26.2784 16.6459 26.2872 15.9354C26.296 15.225 25.9846 14.5628 25.3531 13.9488L18.1171 6.79179C17.5032 6.17783 16.841 5.87085 16.1305 5.87085C15.4201 5.87085 14.7579 6.17783 14.1439 6.79179L6.93428 13.9488C6.30278 14.5803 5.99141 15.2469 6.00018 15.9486C6.00895 16.6503 6.32032 17.3081 6.93428 17.922L14.1439 25.0791Z"
        fill="#00D6E6" />
    <path
        d="M52.0341 28.9736C47.8991 28.936 44.8919 27.7257 43.0126 25.3429C41.1332 22.96 40.135 19.838 40.0179 15.9767C39.9008 12.1155 40.3582 7.6674 41.3902 2.63245H46.1499C45.2429 7.32912 44.7601 11.2314 44.7015 14.3393C44.6433 17.4471 45.158 19.8945 46.2456 21.6813C47.3331 23.4682 49.1755 24.4246 51.7728 24.5507L52.0341 28.9736Z"
        fill="#171717" />
    <path
        d="M74.5451 16.116C75.1363 18.0506 75.138 20.0369 74.5502 22.0752C73.9628 24.113 72.77 25.8126 70.972 27.1739C69.174 28.5352 66.8534 29.2158 64.0103 29.2158C62.0668 29.2158 60.3298 28.7873 58.7992 27.9303C57.2689 27.0728 56.0784 25.9028 55.2277 24.4203C54.377 22.9374 53.9516 21.3031 53.9516 19.5174C53.9516 17.5571 54.3997 15.8628 55.296 14.4344C56.1926 13.0055 57.3439 11.8936 58.7499 11.0984C60.1564 10.3029 61.6613 9.81021 63.2646 9.62038C64.6647 9.44211 66.131 9.53311 67.6635 9.89339C69.196 10.2533 70.5923 10.9476 71.8526 11.9762C73.1128 13.0048 74.0103 14.3847 74.5451 16.116ZM70.577 17.4598C70.2921 16.4558 69.7726 15.6722 69.0184 15.109C68.2647 14.5459 67.4225 14.1807 66.492 14.0137C65.5619 13.8466 64.6503 13.8123 63.7575 13.9107C62.8098 14.0215 61.9108 14.2956 61.0604 14.7331C60.2104 15.1706 59.5166 15.7916 58.9787 16.596C58.4409 17.4005 58.172 18.3687 58.172 19.5006C58.172 20.5169 58.4128 21.4341 58.8943 22.252C59.3761 23.0698 60.0587 23.7143 60.9418 24.1854C61.825 24.6564 62.8534 24.8919 64.0271 24.8919C65.7935 24.8919 67.2238 24.5097 68.318 23.7451C69.4127 22.9805 70.1401 22.022 70.5004 20.8696C70.8607 19.7168 70.8862 18.5802 70.577 17.4598Z"
        fill="#171717" />
    <path
        d="M90.3704 29.2517C86.9627 29.2517 84.406 27.8779 82.7005 25.1303C80.9953 22.3823 79.9833 18.9936 79.6644 14.9642C79.3459 10.9343 79.4584 6.82376 80.0018 2.63245H84.8185C84.3426 6.14423 84.1258 9.53555 84.1679 12.8064C84.21 16.0769 84.7091 18.839 85.665 21.0928C86.6212 23.3462 88.1897 24.4729 90.3704 24.4729C90.9783 24.4729 91.6094 24.3568 92.2635 24.1244C92.9181 23.8921 93.4635 23.6123 93.8999 23.2852L96.7413 27.1454C95.9521 27.7227 94.9612 28.2182 93.7684 28.6318C92.5757 29.045 91.443 29.2517 90.3704 29.2517ZM75.7198 12.6531L91.7645 9.79942L92.7503 14.1211L76.7055 17.3121L75.7198 12.6531Z"
        fill="#171717" />
    <path
        d="M115.846 9.97449C116.164 12.2701 116.087 14.9455 115.617 18.0008C115.148 21.056 114.152 23.7143 112.629 25.9756C111.106 28.2368 108.991 29.3674 106.283 29.3674C103.358 29.3674 101.228 28.2575 99.8932 26.0377C98.5588 23.8178 97.8147 21.2315 97.6611 18.2788C97.5074 15.3261 97.6482 12.558 98.0834 9.97449H102.862C102.574 11.981 102.431 14.1013 102.433 16.3353C102.435 18.569 102.73 20.5029 103.316 22.1372C103.902 23.7716 104.891 24.5887 106.283 24.5887C107.684 24.5887 108.781 23.7389 109.573 22.0393C110.366 20.3398 110.87 18.3366 111.085 16.0299C111.301 13.7227 111.295 11.7043 111.067 9.97449H115.846Z"
        fill="#171717" />
    <path
        d="M134.098 15.0564C133.048 14.6745 131.938 14.3761 130.769 14.1613C129.599 13.9465 128.573 13.8391 127.689 13.8391C126.902 13.8391 126.245 13.9286 125.72 14.1076C125.195 14.2866 124.921 14.6268 124.897 15.128C124.873 15.4383 124.974 15.7009 125.201 15.9157C125.428 16.1305 125.744 16.3215 126.15 16.4886C126.556 16.6557 127.117 16.8466 127.833 17.0614C127.904 17.0614 128.012 17.0853 128.155 17.133C129.945 17.6343 131.395 18.1654 132.505 18.7263C133.615 19.2873 134.474 19.9974 135.083 20.8567C135.692 21.716 135.96 22.814 135.889 24.1506C135.817 25.2248 135.417 26.1437 134.689 26.9076C133.961 27.6714 132.982 28.2562 131.753 28.662C130.524 29.0677 129.134 29.2706 127.582 29.2706C126.389 29.2706 125.177 29.1274 123.948 28.841C122.719 28.5546 121.633 28.2025 120.69 27.7848C119.747 27.367 119.073 26.9792 118.667 26.6211L120.708 22.7185C121.567 23.2913 122.671 23.7986 124.019 24.2402C125.368 24.6817 126.651 24.9025 127.868 24.9025H128.119C128.978 24.8787 129.694 24.7832 130.267 24.6161C130.84 24.449 131.15 24.1506 131.198 23.721C131.246 23.3391 131.097 22.9989 130.751 22.7006C130.405 22.4022 129.963 22.1337 129.426 21.895C128.889 21.6563 128.119 21.3579 127.117 20.9999C125.637 20.4748 124.419 19.9795 123.465 19.514C122.51 19.0486 121.668 18.4339 120.94 17.6701C120.212 16.9063 119.824 15.9754 119.777 14.8774C119.729 13.8749 120.045 12.9798 120.726 12.1921C121.406 11.4044 122.367 10.7838 123.608 10.3303C124.849 9.87675 126.245 9.64999 127.797 9.64999C129.348 9.62612 130.786 9.76337 132.111 10.0617C133.436 10.3601 134.516 10.6883 135.351 11.0464L134.098 15.0564Z"
        fill="#171717" />
</svg>