<svg width="256" height="256" viewBox="0 0 256 256" fill="none" xmlns="http://www.w3.org/2000/svg">
<rect width="256" height="256" rx="128" fill="#171717"/>
<path d="M83.9805 135.187C78.5996 129.88 78.5996 124.601 83.9805 119.35L120.46 83.0943C123.15 80.4784 125.861 79.1705 128.594 79.1705C131.328 79.1705 133.97 80.4784 136.52 83.0943L173.21 119.35C175.9 121.9 177.211 124.524 177.14 127.221C177.07 129.915 175.76 132.571 173.21 135.187L136.731 171.442C134.04 174.135 131.328 175.481 128.594 175.481C125.861 175.481 123.15 174.135 120.46 171.442L83.9805 135.187ZM112.151 200.666C117.203 205.577 122.571 208.033 128.255 208.033C133.938 208.033 139.236 205.577 144.148 200.666L201.825 143.409C206.737 138.498 209.227 133.2 209.298 127.517C209.368 121.833 206.877 116.535 201.825 111.624L143.937 54.3675C139.025 49.4559 133.728 47 128.044 47C122.361 47 117.063 49.4559 112.151 54.3675L54.4742 111.624C49.4222 116.676 46.9313 122.008 47.0014 127.622C47.0716 133.235 49.5625 138.498 54.4742 143.409L112.151 200.666Z" fill="#00D6E6"/>
</svg>
