<svg xmlns="http://www.w3.org/2000/svg" width="704" height="928" viewBox="0 0 704 928" fill="none">
    <path
        d="M174.311 695.302C126.394 648.049 126.394 601.04 174.311 554.275L499.158 231.42C523.117 208.125 547.261 196.478 571.59 196.478C595.939 196.478 619.468 208.125 642.177 231.42L968.899 554.275C992.857 576.984 1004.52 600.347 1003.9 624.364C1003.27 648.362 991.607 672.008 968.899 695.302L644.052 1018.16C620.093 1042.14 595.939 1054.12 571.59 1054.12C547.261 1054.12 523.117 1042.14 499.158 1018.16L174.311 695.302ZM425.174 1278.39C470.162 1322.13 517.962 1344 568.574 1344C619.185 1344 666.36 1322.13 710.099 1278.39L1223.71 768.526C1267.45 724.787 1289.64 677.612 1290.26 627C1290.88 576.388 1268.7 529.213 1223.71 485.475L708.225 -24.3922C664.486 -68.1307 617.311 -90 566.699 -90C516.087 -90 468.912 -68.1307 425.174 -24.3922L-88.4421 485.475C-133.43 530.463 -155.612 577.95 -154.987 627.937C-154.362 677.924 -132.181 724.787 -88.4421 768.526L425.174 1278.39Z"
        fill="#00D6E6" />
</svg>